<svg height="512" viewBox="0 0 64 64" width="512" xmlns="http://www.w3.org/2000/svg"><g id="Digital_Graphic-Graphic_Tool-Editor-Browser-Digital" data-name="Digital Graphic-Graphic Tool-Editor-Browser-Digital"><path d="m57 2h-50a5 5 0 0 0 -5 5v50a5 5 0 0 0 5 5h50a5 5 0 0 0 5-5v-50a5 5 0 0 0 -5-5zm-23 58h-4v-19h4zm1-21h-6a1 1 0 0 1 0-2h6a1 1 0 0 1 0 2zm-2-7v-3.88l2.84 3.97-1.46 2.91h-4.76l-1.46-2.91 2.84-3.97v3.88zm27 25a3.009 3.009 0 0 1 -3 3h-21v-19.18a2.98 2.98 0 0 0 .43-5.44l1.46-2.93a.983.983 0 0 0 -.08-1.03l-5-7a1.024 1.024 0 0 0 -1.62 0l-5 7a.983.983 0 0 0 -.08 1.03l1.46 2.93a2.98 2.98 0 0 0 .43 5.44v19.18h-21a3.009 3.009 0 0 1 -3-3v-45h56zm0-47h-56v-3a3.009 3.009 0 0 1 3-3h50a3.009 3.009 0 0 1 3 3z"/><path d="m8 6h2v2h-2z"/><path d="m12 6h2v2h-2z"/><path d="m16 6h2v2h-2z"/><path d="m47 16a3 3 0 0 0 -2.816 2h-9.368a2.982 2.982 0 0 0 -5.632 0h-9.368a3 3 0 1 0 0 2h4.953a13.891 13.891 0 0 0 -6.732 11.173 3 3 0 1 0 2 .023 12.086 12.086 0 0 1 9.277-10.886 2.979 2.979 0 0 0 5.372 0 12.086 12.086 0 0 1 9.277 10.89 3 3 0 1 0 2-.023 13.893 13.893 0 0 0 -6.732-11.177h4.953a2.995 2.995 0 1 0 2.816-4zm-28 19a1 1 0 1 1 1-1 1 1 0 0 1 -1 1zm26 0a1 1 0 1 1 1-1 1 1 0 0 1 -1 1zm-28-15a1 1 0 1 1 1-1 1 1 0 0 1 -1 1zm15 0a1 1 0 1 1 1-1 1 1 0 0 1 -1 1zm15 0a1 1 0 1 1 1-1 1 1 0 0 1 -1 1z"/></g></svg>