<?xml version="1.0"?>
<svg xmlns="http://www.w3.org/2000/svg" viewBox="0 0 64 64" width="512" height="512"><g id="Layer_20" data-name="Layer 20"><path d="M62,53H61V47.41A10.38,10.38,0,0,0,54.94,38l-.21-1H57a3,3,0,0,0,3-3V32a3,3,0,0,0-3-3H53l-1-4.49A7.05,7.05,0,0,0,45.17,19H18.83A7.05,7.05,0,0,0,12,24.51L11,29H7a3,3,0,0,0-3,3v2a3,3,0,0,0,3,3H9.27l-.21,1A10.38,10.38,0,0,0,3,47.41V53H2a1,1,0,0,0-1,1v4a1,1,0,0,0,1,1H7v1a3,3,0,0,0,3,3h8a3,3,0,0,0,3-3V59H43v1a3,3,0,0,0,3,3h8a3,3,0,0,0,3-3V59h5a1,1,0,0,0,1-1V54A1,1,0,0,0,62,53ZM57,31a1,1,0,0,1,1,1v2a1,1,0,0,1-1,1H54.29l-.87-4ZM18.83,21H45.17a5,5,0,0,1,4,2H14.86A5,5,0,0,1,18.83,21ZM7,35a1,1,0,0,1-1-1V32a1,1,0,0,1,1-1h3.58l-.87,4Zm6.93-10H50.07l2.66,12.23A10.16,10.16,0,0,0,50.59,37H13.41a10.16,10.16,0,0,0-2.14.23ZM5,47.41A8.4,8.4,0,0,1,13.41,39H50.59A8.4,8.4,0,0,1,59,47.41V53H41V44a3,3,0,0,0-3-3H26a3,3,0,0,0-3,3v9H5ZM39,45H25V44a1,1,0,0,1,1-1H38a1,1,0,0,1,1,1ZM25,47H39v2H25Zm0,4H39v2H25Zm-6,9a1,1,0,0,1-1,1H10a1,1,0,0,1-1-1V59H19Zm36,0a1,1,0,0,1-1,1H46a1,1,0,0,1-1-1V59H55Zm6-3H3V55H61Z"/><path d="M14,42c-3.92,0-7,2-7,4.5S10.08,51,14,51s7-2,7-4.5S17.92,42,14,42Zm0,7c-2.95,0-5-1.32-5-2.5S11.05,44,14,44s5,1.32,5,2.5S17,49,14,49Z"/><path d="M50,51c3.92,0,7-2,7-4.5S53.92,42,50,42s-7,2-7,4.5S46.08,51,50,51Zm0-7c3,0,5,1.32,5,2.5S53,49,50,49s-5-1.32-5-2.5S47.05,44,50,44Z"/><path d="M16.74,7,21,8.1V13a1,1,0,0,0,.71,1l10,3a1.07,1.07,0,0,0,.58,0l10-3A1,1,0,0,0,43,13V8.1l3-.8v3.88a3,3,0,1,0,2,0V6a1,1,0,0,0-.74-1l-15-4a1.14,1.14,0,0,0-.52,0l-15,4a1,1,0,0,0,0,1.94ZM41,12.26,32,15l-9-2.7V8.64L31.74,11a1.14,1.14,0,0,0,.52,0L41,8.64ZM47,15a1,1,0,1,1,1-1A1,1,0,0,1,47,15ZM32,3,43.12,6,32,9,20.88,6Z"/><rect x="17.76" y="30" width="8.49" height="2" transform="translate(-15.48 24.64) rotate(-45)"/><rect x="27.76" y="30" width="8.49" height="2" transform="translate(-12.55 31.71) rotate(-45)"/><rect x="37.76" y="30" width="8.49" height="2" transform="translate(-9.62 38.78) rotate(-45)"/></g></svg>
